PathFileType	4	(X/Y/Z)	Walk2.trc
DataRate	CameraRate	NumFrames	NumMarkers	Units	OrigDataRate	OrigDataStartFrame	OrigNumFrames
200.000000	200.000000	7	59	mm	200.000000	534	574
Frame#	Times		RFHD		CLAV		STRN		LASI		RASI		RACR1		RUA1		RElbow		RFA1		RWRU		LACR1		LUA1		LFA1		LCAR		RTH1		RTH2		LTH3		LTH2		LTH4		LLFC		LTB1		LTB3		LTB4		LLMAL		LMT1		LToe		RTH3		LTH1		LFHD		C7		RCAR		RTH4		LWRR		RLFC		LTB2		RBack		RPSI		LMT5		LMMAL		RBHD		T10		LPSI		LElbow		RTB1		LWRU		RTB2		RCAL		RMMAL		RTB4		RToe		RMT1		RTB3		RWRR		LElbowM		LBHD		RElbowM		RMT5		RLMAL		LCAL
			X1	Y1	Z1	X2	Y2	Z2	X3	Y3	Z3	X4	Y4	Z4	X5	Y5	Z5	X6	Y6	Z6	X7	Y7	Z7	X8	Y8	Z8	X9	Y9	Z9	X10	Y10	Z10	X11	Y11	Z11	X12	Y12	Z12	X13	Y13	Z13	X14	Y14	Z14	X15	Y15	Z15	X16	Y16	Z16	X17	Y17	Z17	X18	Y18	Z18	X19	Y19	Z19	X20	Y20	Z20	X21	Y21	Z21	X22	Y22	Z22	X23	Y23	Z23	X24	Y24	Z24	X25	Y25	Z25	X26	Y26	Z26	X27	Y27	Z27	X28	Y28	Z28	X29	Y29	Z29	X30	Y30	Z30	X31	Y31	Z31	X32	Y32	Z32	X33	Y33	Z33	X34	Y34	Z34	X35	Y35	Z35	X36	Y36	Z36	X37	Y37	Z37	X38	Y38	Z38	X39	Y39	Z39	X40	Y40	Z40	X41	Y41	Z41	X42	Y42	Z42	X43	Y43	Z43	X44	Y44	Z44	X45	Y45	Z45	X46	Y46	Z46	X47	Y47	Z47	X48	Y48	Z48	X49	Y49	Z49	X50	Y50	Z50	X51	Y51	Z51	X52	Y52	Z52	X53	Y53	Z53	X54	Y54	Z54	X55	Y55	Z55	X56	Y56	Z56	X57	Y57	Z57	X58	Y58	Z58	X59	Y59	Z59

534	2.67	903.06	1582.1	16.366	835.93	1349.9	-34.6	906.55	1125.9	-29.547	852.62	948.27	-154.33	863.2	963.03	118.93	786.95	1365.8	140.23	746.6	1158.1	204.14	712.31	1055.3	228.78	772.73	912.66	236.58	744.31	803.92	252.07	771.11	1364.9	-201.71	757.73	1156.4	-249.25	806.88	919.07	-259.38	837.3	762.78	-257.31	807.67	761.12	166.88	903.19	704.55	130.28	773	558.09	-136.29	836.45	654.27	-133.9	762.98	644.47	-156.35	769.57	449.65	-121.5	784.66	348.88	-40.928	733.03	168.63	-37.145	760.48	256.66	-42.807	671.67	63.409	-81.492	818.71	37.87	-44.926	864.22	28.26	-74.94	873.4	586.73	131.28	754.86	739.49	-177.57	898.95	1581.7	-56.54	712.83	1431.2	-28.494	791.56	763.98	248.21	841.03	673.62	148.74	826.61	805.02	-214.66	895.96	499.9	115.19	738.2	262.27	-111.16	666.89	1328	69.756	646.99	987.4	54.817	777.19	21.216	-122.29	689.93	74.556	-1.4981	726.74	1565.4	45.91	673.96	1146.1	-21.873	642.6	984.18	-59.565	743.48	1037.1	-263.63	887.73	374.62	51.811	788.39	799.16	-274.47	816.26	314.59	118.69	638.29	138.36	43.228	721.26	154.17	22.088	834.03	299.02	51.525	842.76	41.76	106.87	816.25	59.296	70.861	780.86	223.45	50.918	795.95	809.63	198.52	708.87	1024.2	-202.39	727.51	1575.2	-83.681	697.63	1033.4	145.76	760.15	56.901	131.39	686.98	152.92	96.436	622.38	31.739	-26.141
535	2.675	908.08	1581.7	16.64	840.79	1349.6	-34.652	911.37	1125.7	-30.071	857.55	947.85	-154.34	868.45	963.05	118.41	791.91	1365.4	140.24	750.86	1157.8	204.02	716.29	1055	228.53	775.95	912.15	236.61	746.85	803.58	252.16	775.8	1364.9	-201.65	763.4	1156.5	-249.73	814.79	919.78	-259.79	847.28	764.06	-257.38	813.18	761.32	167.15	909.07	705.38	130.16	776.29	557.59	-136.07	840.15	653.44	-133.75	766.62	643.96	-156.09	772.34	449.16	-121.22	786.7	348.28	-40.622	733.84	168.38	-36.914	761.91	256.21	-42.532	671.87	63.578	-81.381	818.73	37.871	-44.93	864.26	28.212	-75.157	879.96	587.39	131.14	758.91	739.05	-177.43	903.96	1581.4	-56.274	717.7	1430.9	-28.343	793.84	763.33	248.4	847.1	674.06	148.84	835.97	806.17	-214.83	902.84	500.33	115.06	739.79	261.95	-110.94	671.82	1327.7	69.777	651.99	987.26	54.851	777.17	21.207	-122.28	690.2	74.514	-1.3275	731.7	1565.1	46.121	678.91	1145.9	-21.948	647.46	983.92	-59.486	750.04	1037.2	-264.41	897.2	374.64	51.65	797.87	799.64	-274.71	827.17	312.9	118.36	653.89	131.93	42.589	736.48	150.07	21.609	845.43	297.68	51.25	860.86	41.265	107.28	834.05	58.134	71.083	794.2	220.86	50.561	798.6	808.91	198.68	715.31	1023.9	-203.31	732.53	1575.1	-83.462	701.8	1033.2	145.46	777.69	54.322	131.36	702.08	148.01	95.871	622.47	31.982	-25.967
536	2.68	913.09	1581.2	16.934	845.65	1349.4	-34.691	916.21	1125.4	-30.565	862.47	947.36	-154.31	873.67	962.99	117.92	796.87	1365	140.26	755.14	1157.4	203.92	720.31	1054.7	228.3	779.21	911.59	236.65	749.43	803.19	252.25	780.49	1364.9	-201.58	769.04	1156.7	-250.19	822.66	920.46	-260.22	857.22	765.35	-257.45	818.67	761.46	167.42	914.89	706.11	130.02	779.61	557.07	-135.85	843.88	652.6	-133.57	770.28	643.43	-155.83	775.15	448.64	-120.94	788.77	347.66	-40.311	734.67	168.11	-36.679	763.35	255.75	-42.25	672.08	63.75	-81.266	818.75	37.87	-44.93	864.3	28.163	-75.376	886.42	587.95	131.02	762.99	738.57	-177.29	908.96	1581	-55.989	722.56	1430.6	-28.17	796.18	762.65	248.61	853.11	674.42	148.95	845.32	807.32	-215	909.58	500.63	114.97	741.42	261.61	-110.72	676.75	1327.4	69.822	657.01	987.06	54.891	777.15	21.198	-122.27	690.48	74.462	-1.1402	736.64	1564.8	46.352	683.86	1145.6	-22.008	652.34	983.62	-59.4	756.58	1037.2	-265.16	906.57	374.59	51.498	807.31	800.11	-274.94	838.11	311.12	118.04	669.74	125.47	41.95	751.89	145.97	21.141	856.8	296.29	50.985	879.05	40.861	107.74	851.96	57.054	71.34	807.61	218.23	50.213	801.3	808.15	198.86	721.78	1023.5	-204.18	737.53	1575	-83.223	706.02	1033	145.18	795.37	51.802	131.36	717.36	143.06	95.316	622.56	32.237	-25.796
537	2.685	918.09	1580.7	17.246	850.53	1349	-34.713	921.07	1125.1	-31.029	867.39	946.78	-154.25	878.87	962.83	117.47	801.85	1364.4	140.31	759.44	1157	203.85	724.38	1054.4	228.09	782.52	910.98	236.71	752.06	802.76	252.36	785.18	1364.9	-201.49	774.66	1156.7	-250.64	830.51	921.12	-260.65	867.13	766.63	-257.53	824.15	761.55	167.7	920.65	706.74	129.85	782.97	556.52	-135.62	847.63	651.73	-133.38	773.97	642.88	-155.57	777.99	448.09	-120.65	790.86	347.03	-39.997	735.52	167.83	-36.44	764.82	255.28	-41.964	672.29	63.925	-81.15	818.77	37.866	-44.922	864.34	28.113	-75.592	892.79	588.43	130.92	767.1	738.06	-177.16	913.95	1580.6	-55.685	727.42	1430.3	-27.975	798.57	761.92	248.82	859.06	674.72	149.07	854.68	808.47	-215.19	916.18	500.79	114.92	743.06	261.26	-110.49	681.7	1327	69.888	662.04	986.82	54.939	777.14	21.19	-122.25	690.79	74.404	-0.93655	741.58	1564.5	46.602	688.82	1145.2	-22.052	657.22	983.28	-59.305	763.1	1037.2	-265.88	915.84	374.48	51.356	816.72	800.57	-275.14	849.07	309.25	117.75	685.84	119	41.312	767.48	141.87	20.684	868.14	294.87	50.731	897.33	40.562	108.21	869.97	56.071	71.623	821.09	215.59	49.875	804.04	807.35	199.05	728.27	1023.1	-205	742.53	1574.8	-82.963	710.29	1032.6	144.92	813.18	49.359	131.38	732.83	138.09	94.773	622.66	32.506	-25.626
538	2.69	923.07	1580.2	17.575	855.41	1348.7	-34.72	925.96	1124.8	-31.46	872.29	946.12	-154.17	884.03	962.58	117.05	806.84	1363.9	140.37	763.76	1156.5	203.8	728.49	1054	227.91	785.87	910.33	236.8	754.75	802.28	252.48	789.86	1364.8	-201.38	780.25	1156.8	-251.06	838.34	921.75	-261.08	876.99	767.91	-257.62	829.62	761.58	167.99	926.34	707.27	129.67	786.36	555.95	-135.41	851.39	650.85	-133.17	777.69	642.32	-155.3	780.85	447.52	-120.37	792.97	346.37	-39.681	736.38	167.53	-36.201	766.3	254.8	-41.674	672.51	64.101	-81.032	818.8	37.859	-44.908	864.38	28.062	-75.804	899.06	588.82	130.85	771.24	737.53	-177.02	918.93	1580.1	-55.361	732.29	1430	-27.76	801.01	761.15	249.05	864.95	674.94	149.21	864.02	809.63	-215.38	922.63	500.8	114.92	744.73	260.89	-110.26	686.65	1326.5	69.976	667.09	986.54	54.998	777.12	21.183	-122.22	691.1	74.342	-0.71728	746.5	1564.1	46.874	693.78	1144.8	-22.081	662.12	982.91	-59.202	769.62	1037.1	-266.57	924.99	374.3	51.227	826.09	801.03	-275.34	860.05	307.32	117.48	702.18	112.56	40.677	783.24	137.8	20.237	879.46	293.42	50.49	915.69	40.383	108.7	888.06	55.201	71.922	834.62	212.95	49.548	806.84	806.5	199.25	734.79	1022.7	-205.77	747.52	1574.6	-82.681	714.6	1032.3	144.7	831.12	47.009	131.41	748.48	133.13	94.243	622.75	32.787	-25.459
539	2.695	928.05	1579.6	17.923	860.29	1348.3	-34.709	930.86	1124.5	-31.857	877.18	945.39	-154.07	889.18	962.25	116.68	811.84	1363.3	140.45	768.11	1156	203.78	732.64	1053.5	227.76	789.27	909.63	236.91	757.5	801.75	252.62	794.54	1364.7	-201.26	785.83	1156.7	-251.46	846.13	922.36	-261.53	886.81	769.19	-257.71	835.1	761.56	168.29	931.96	707.7	129.46	789.78	555.36	-135.19	855.17	649.95	-132.94	781.43	641.75	-155.03	783.74	446.92	-120.08	795.1	345.7	-39.366	737.24	167.22	-35.962	767.79	254.29	-41.383	672.73	64.279	-80.914	818.82	37.848	-44.885	864.43	28.009	-76.01	905.23	589.12	130.79	775.42	736.96	-176.88	923.9	1579.7	-55.019	737.16	1429.5	-27.526	803.51	760.34	249.28	870.78	675.08	149.37	873.35	810.78	-215.59	928.93	500.68	114.96	746.41	260.5	-110.02	691.62	1326	70.084	672.15	986.22	55.071	777.11	21.177	-122.19	691.43	74.282	-0.48379	751.43	1563.7	47.169	698.75	1144.4	-22.093	667.02	982.51	-59.087	776.12	1037	-267.23	934.03	374.07	51.11	835.43	801.48	-275.51	871.03	305.32	117.23	718.76	106.17	40.047	799.15	133.79	19.802	890.76	291.95	50.263	934.11	40.339	109.19	906.24	54.457	72.222	848.22	210.33	49.232	809.69	805.62	199.46	741.34	1022.2	-206.49	752.5	1574.3	-82.377	718.95	1031.9	144.5	849.19	44.771	131.44	764.31	128.19	93.728	622.85	33.08	-25.295
540	2.7	933.02	1579	18.289	865.19	1347.9	-34.681	935.8	1124	-32.22	882.06	944.59	-153.96	894.31	961.82	116.35	816.84	1362.6	140.55	772.5	1155.5	203.77	736.84	1053.1	227.63	792.72	908.9	237.04	760.31	801.19	252.77	799.23	1364.5	-201.12	791.39	1156.7	-251.84	853.9	922.95	-261.97	896.58	770.45	-257.81	840.57	761.48	168.59	937.52	708.02	129.24	793.23	554.75	-134.97	858.97	649.03	-132.69	785.19	641.15	-154.76	786.64	446.3	-119.79	797.25	345.01	-39.055	738.11	166.9	-35.725	769.29	253.78	-41.091	672.96	64.459	-80.796	818.85	37.834	-44.855	864.48	27.956	-76.207	911.29	589.32	130.76	779.63	736.37	-176.73	928.86	1579.1	-54.657	742.04	1429.1	-27.271	806.07	759.49	249.53	876.55	675.14	149.55	882.66	811.92	-215.8	935.07	500.41	115.05	748.1	260.1	-109.78	696.6	1325.4	70.212	677.24	985.85	55.16	777.1	21.173	-122.15	691.76	74.23	-0.23869	756.34	1563.3	47.487	703.73	1143.9	-22.088	671.94	982.07	-58.962	782.61	1036.9	-267.85	942.96	373.79	51.008	844.71	801.93	-275.67	882.03	303.28	117.01	735.57	99.85	39.425	815.21	129.86	19.379	902.02	290.48	50.053	952.58	40.447	109.66	924.49	53.856	72.51	861.88	207.74	48.929	812.6	804.7	199.69	747.91	1021.7	-207.16	757.46	1574	-82.05	723.36	1031.4	144.33	867.37	42.661	131.46	780.32	123.29	93.229	622.94	33.384	-25.134
